<svg version="1" xmlns="http://www.w3.org/2000/svg" width="346.667" height="346.667" viewBox="0 0 260.000000 260.000000"><path d="M54.4 8.1c-1.2.6-2.7 2.2-3.3 3.5-1.6 3.5-1.6 230.3 0 233.7.6 1.4 2.2 3 3.6 3.6 3.2 1.5 83.8 1.5 97 0 24.9-2.7 47.4-12.7 59.1-26 5.2-5.9 10.1-14.8 12.9-23.4 2.2-6.7 2.7-10.4 3.1-23 .3-9.4 0-17.2-.7-20.7-1.4-6.4-6.7-18.1-11.3-24.4-2.9-4-10.5-10.8-13.1-11.7-.6-.2.5-2.3 2.5-4.8 4.8-6 10.5-17.5 12.3-25.1 1.9-8.1 2-31.4.1-38.3-2.3-8.6-8.4-19.5-14.1-25-6.6-6.5-18.7-12.6-32.1-16.2l-9.9-2.7-52-.3c-35.4-.1-52.7.1-54.1.8zm87.7 54.3c12.4 4.5 15.9 18 7.1 27.8-5.7 6.4-10.6 8-24.9 8.6l-12.3.5V59.7l12.8.6c8 .3 14.4 1.1 17.3 2.1zm1.7 91c6.1 1.7 9.4 3.6 13.4 8 6.7 7.3 5.7 16.9-2.6 25.1-6.8 6.8-12.2 8.5-29.3 9.2l-13.3.6v-45.6l13.3.6c7.2.4 15.6 1.3 18.5 2.1z"/></svg>